<svg width="32" height="32" viewBox="0 0 32 32" fill="none" xmlns="http://www.w3.org/2000/svg">
<g id="Group 1">
<path id="Union" opacity="0.3" fill-rule="evenodd" clip-rule="evenodd" d="M0 3.6958H32V7.01226H0V3.6958ZM0 14.397H20.2857V17.7727H0V14.397ZM32 25.0869H0V28.4034H32V25.0869Z" fill="white"/>
<path id="Union_2" fill-rule="evenodd" clip-rule="evenodd" d="M26.1015 4.97285L21.0508 0L17.4508 3.54443L11.9365 3.54443L8.33653 0L3.28577 4.97285L6.85716 8.48915V12.6187L3.28577 16.135L6.85716 19.6513V23.3086L3.28577 26.8249L8.33653 31.7977L11.8329 28.3554H17.3491L21.0508 31.9999L26.1015 27.027L21.0508 22.0542L18.0509 25.0078H11.5417L9.71431 23.2086V19.7513L11.7748 17.7226H20.4V14.375L11.5998 14.375L9.71431 12.5186V8.58918L11.2381 7.0889L18.1492 7.0889L21.0508 9.9457L26.1015 4.97285Z" fill="white"/>
</g>
</svg>
